<svg width="25" height="24" viewBox="0 0 25 24" fill="none" xmlns="http://www.w3.org/2000/svg">
<g clip-path="url(#clip0)">
<path d="M12.2891 24C18.9165 24 24.2891 18.6274 24.2891 12C24.2891 5.37258 18.9165 0 12.2891 0C5.66164 0 0.289062 5.37258 0.289062 12C0.289062 18.6274 5.66164 24 12.2891 24Z" fill="#D80027"/>
<path d="M19.073 8.90651H14.7265C14.9948 8.62554 15.1599 8.24515 15.1599 7.82595C15.1599 6.96152 14.4592 6.26074 13.5947 6.26074C13.0501 6.26074 12.5708 6.53899 12.2904 6.96091C12.01 6.53899 11.5306 6.26074 10.986 6.26074C10.1216 6.26074 9.42084 6.96152 9.42084 7.82595C9.42084 8.24515 9.58598 8.62559 9.8543 8.90651H5.50781C5.50781 10.0591 6.51173 10.9934 7.66425 10.9934H7.59469C7.59469 12.1461 8.52905 13.0804 9.6817 13.0804C9.6817 13.4538 9.78009 13.8037 9.95184 14.1067L8.22075 15.8379L9.54891 17.1659L11.4329 15.282C11.5067 15.309 11.583 15.3307 11.6619 15.3455L10.5234 17.9159L12.2904 19.8259L14.0573 17.9158L12.9189 15.3454C12.9978 15.3306 13.0741 15.309 13.1479 15.2819L15.0319 17.1658L16.36 15.8377L14.6289 14.1066C14.8007 13.8036 14.8991 13.4536 14.8991 13.0803C16.0517 13.0803 16.986 12.146 16.986 10.9933H16.9165C18.069 10.9934 19.073 10.0591 19.073 8.90651Z" fill="black"/>
</g>
<defs>
<clipPath id="clip0">
<rect width="24" height="24" fill="white" transform="translate(0.289062)"/>
</clipPath>
</defs>
</svg>
