<svg width="25" height="24" viewBox="0 0 25 24" fill="none" xmlns="http://www.w3.org/2000/svg">
<g clip-path="url(#clip0)">
<path d="M12.2891 24C18.9165 24 24.2891 18.6274 24.2891 12C24.2891 5.37258 18.9165 0 12.2891 0C5.66164 0 0.289062 5.37258 0.289062 12C0.289062 18.6274 5.66164 24 12.2891 24Z" fill="#F9F9F9"/>
<path d="M12.2888 23.9999C17.4483 23.9999 21.8469 20.7434 23.5424 16.1738H1.03516C2.73072 20.7434 7.12919 23.9999 12.2888 23.9999Z" fill="#D80027"/>
<path d="M16.9856 9.91329V8.34809H17.5073V7.3046H16.4638V7.82637H15.4204V7.3046H14.3769V8.34809H14.8986V9.91329H13.8551V6.26121H14.3769V5.21777H13.3334V5.7394H12.8116V5.21777H11.7682V5.7394H11.2464V5.21777H10.203V6.26121H10.7247V9.91329H9.68123V8.34809H10.203V7.3046H9.15947V7.82637H8.11603V7.3046H7.07255V8.34809H7.59427V9.91329H6.55078V14.0872H18.0291V9.91329H16.9856Z" fill="#D80027"/>
<path d="M12.29 13.5654C11.4256 13.5654 10.7248 14.2662 10.7248 15.1306C10.7248 15.812 11.1605 16.3916 11.7683 16.6064V18.7829H10.2031V20.8698H12.8118V16.6065C13.4196 16.3916 13.8553 15.8121 13.8553 15.1307C13.8553 14.2663 13.1545 13.5654 12.29 13.5654ZM12.29 15.6524C12.0019 15.6524 11.7683 15.4188 11.7683 15.1307C11.7683 14.8425 12.0019 14.609 12.29 14.609C12.5782 14.609 12.8118 14.8425 12.8118 15.1307C12.8118 15.4188 12.5782 15.6524 12.29 15.6524Z" fill="#FFDA44"/>
</g>
<defs>
<clipPath id="clip0">
<rect width="24" height="24" fill="white" transform="translate(0.289062)"/>
</clipPath>
</defs>
</svg>
