<svg width="25" height="24" viewBox="0 0 25 24" fill="none" xmlns="http://www.w3.org/2000/svg">
<g clip-path="url(#clip0)">
<path d="M12.2891 24C18.9165 24 24.2891 18.6274 24.2891 12C24.2891 5.37258 18.9165 0 12.2891 0C5.66164 0 0.289062 5.37258 0.289062 12C0.289062 18.6274 5.66164 24 12.2891 24Z" fill="#D80027"/>
<path d="M16.7327 8.04441L15.8846 11.0712L13.3398 10.6013L11.7017 7.22461L7.27633 8.79497L6.92734 7.81153L5.76953 7.66889L6.64192 10.1274L9.68734 9.34861L10.5528 11.7875L8.44755 14.8944L12.0202 17.9416L11.3431 18.7355L11.7984 19.8096L13.4914 17.8247L11.2942 15.5767L12.9736 13.6079L16.717 13.8776L17.5696 9.25992L18.5957 9.44944L19.2983 8.51803L16.7327 8.04441Z" fill="#F0F0F0"/>
</g>
<defs>
<clipPath id="clip0">
<rect width="24" height="24" fill="white" transform="translate(0.289062)"/>
</clipPath>
</defs>
</svg>
