<svg width="25" height="24" viewBox="0 0 25 24" fill="none" xmlns="http://www.w3.org/2000/svg">
<g clip-path="url(#clip0)">
<path d="M24.2891 12C24.2891 18.6274 18.9164 24 12.2891 24C5.66169 24 0.289062 18.6274 0.289062 12C4.41078 7.87828 7.90644 4.38263 12.2891 0C18.9164 0 24.2891 5.37262 24.2891 12Z" fill="#D80027"/>
<path d="M12.2891 12C12.2891 5.37262 12.2891 4.59131 12.2891 0C5.66169 0 0.289062 5.37262 0.289062 12H12.2891Z" fill="#0052B4"/>
<path d="M10.7241 7.02317L9.25851 7.71261L10.0389 9.13194L8.44753 8.82744L8.24583 10.4351L7.13742 9.25273L6.02892 10.4351L5.82731 8.82744L4.23591 9.13184L5.01628 7.71251L3.55078 7.02317L5.01633 6.33387L4.23591 4.9145L5.82727 5.21895L6.02897 3.61133L7.13742 4.7937L8.24587 3.61133L8.44753 5.21895L10.0389 4.9145L9.25851 6.33392L10.7241 7.02317Z" fill="#F0F0F0"/>
<path d="M7.13608 9.25653C8.36974 9.25653 9.36982 8.25645 9.36982 7.0228C9.36982 5.78914 8.36974 4.78906 7.13608 4.78906C5.90242 4.78906 4.90234 5.78914 4.90234 7.0228C4.90234 8.25645 5.90242 9.25653 7.13608 9.25653Z" fill="#0052B4"/>
<path d="M7.13552 8.21351C6.47922 8.21351 5.94531 7.67955 5.94531 7.02326C5.94531 6.36696 6.47927 5.83301 7.13552 5.83301C7.79181 5.83301 8.32577 6.36696 8.32577 7.02326C8.32572 7.67955 7.79172 8.21351 7.13552 8.21351Z" fill="#F0F0F0"/>
</g>
<defs>
<clipPath id="clip0">
<rect width="24" height="24" fill="white" transform="translate(0.289062)"/>
</clipPath>
</defs>
</svg>
